<svg width="121" height="18" viewBox="0 0 121 18" fill="none" xmlns="http://www.w3.org/2000/svg">
<path d="M4.96 3.46002V16.84H7.42V3.46002H12.4V1.18002H0V3.46002H4.96Z" fill="white"/>
<path d="M17.0123 7.98002C18.4923 7.98002 19.7123 8.88002 19.7923 10.4H14.1923C14.4123 8.94002 15.5523 7.98002 17.0123 7.98002ZM22.1723 12.2C22.2123 11.94 22.2123 11.7 22.2123 11.46C22.2123 8.24002 20.3323 5.94002 17.0123 5.94002C13.9123 5.94002 11.6323 8.46002 11.6323 11.48C11.6323 14.66 14.0723 17.04 17.2323 17.04C19.3523 17.04 21.4123 15.86 22.0123 13.86L20.0323 13.18C19.5923 14.48 18.4923 14.98 17.1923 14.98C15.6323 14.98 14.1123 13.84 14.0723 12.2H22.1723Z" fill="white"/>
<path d="M28.197 17.02C31.037 17.02 32.377 15.38 32.377 13.7C32.377 11.36 30.537 10.6 28.537 10.34C27.097 10.14 26.437 9.88002 26.437 9.02002C26.437 8.34002 27.237 7.86002 28.077 7.86002C29.417 7.86002 29.997 8.64002 30.177 9.36002L32.197 8.88002C32.057 7.82002 30.977 5.94002 28.157 5.94002C25.777 5.94002 24.137 7.52002 24.137 9.22002C24.137 11.58 25.877 12.18 27.817 12.5C29.337 12.74 29.977 13 29.977 13.84C29.977 14.58 29.317 15.08 28.197 15.08C26.977 15.08 26.157 14.32 25.977 13.4L23.917 13.92C24.057 15.12 25.257 17.02 28.197 17.02Z" fill="white"/>
<path d="M34.1709 11.48C34.1709 14.64 36.7309 17.02 39.8109 17.02C42.9509 17.02 45.4309 14.6 45.4309 11.44C45.4309 8.30002 42.8909 5.94002 39.8309 5.94002C36.7309 5.94002 34.1709 8.32002 34.1709 11.48ZM36.6109 11.44C36.6109 9.60002 37.8909 8.10002 39.8109 8.10002C41.7509 8.10002 43.0109 9.64002 43.0109 11.48C43.0109 13.32 41.7709 14.86 39.8309 14.86C37.8909 14.86 36.6109 13.26 36.6109 11.44Z" fill="white"/>
<path d="M52.9587 17.02C56.4187 17.02 58.3787 14.72 58.3787 12.44C58.3787 10.12 56.8987 8.46002 54.0987 7.90002L52.1187 7.52002C50.8587 7.26002 50.1387 6.32002 50.1387 5.44002C50.1387 4.24002 51.3187 3.16002 52.8387 3.16002C54.4987 3.16002 55.5588 4.40002 55.8387 5.52002L58.1187 4.80002C57.7987 3.10002 56.3387 0.960022 52.7987 0.960022C49.9787 0.960022 47.6187 3.08002 47.6187 5.66002C47.6187 7.70002 49.0187 9.40002 51.5987 9.92002L53.5187 10.32C54.8387 10.6 55.8387 11.32 55.8387 12.6C55.8387 13.92 54.5588 14.8 52.9987 14.8C51.1187 14.8 49.8787 13.62 49.5387 11.8L47.1587 12.44C47.3787 14.66 49.2987 17.02 52.9587 17.02Z" fill="white"/>
<path d="M65.6061 7.98002C67.0861 7.98002 68.3061 8.88002 68.3861 10.4H62.7861C63.0061 8.94002 64.1461 7.98002 65.6061 7.98002ZM70.7661 12.2C70.8061 11.94 70.8061 11.7 70.8061 11.46C70.8061 8.24002 68.9261 5.94002 65.6061 5.94002C62.5061 5.94002 60.2261 8.46002 60.2261 11.48C60.2261 14.66 62.6661 17.04 65.8261 17.04C67.9461 17.04 70.0061 15.86 70.6061 13.86L68.6261 13.18C68.1861 14.48 67.0861 14.98 65.7861 14.98C64.2261 14.98 62.7061 13.84 62.6661 12.2H70.7661Z" fill="white"/>
<path d="M79.0908 8.56002V6.12002C78.9108 6.08002 78.5908 6.06002 78.5108 6.06002C77.3908 6.06002 76.2308 6.64002 75.5708 7.80002V6.16002H73.2508V16.84H75.6308V11.42C75.6308 9.58002 76.5908 8.50002 78.4108 8.50002C78.4508 8.50002 78.8908 8.52002 79.0908 8.56002Z" fill="white"/>
<path d="M84.3623 16.84H86.7423L91.2023 6.16002H88.7023L85.5623 14.06L82.4223 6.16002H79.8423L84.3623 16.84Z" fill="white"/>
<path d="M97.442 7.98002C98.922 7.98002 100.142 8.88002 100.222 10.4H94.622C94.842 8.94002 95.982 7.98002 97.442 7.98002ZM102.602 12.2C102.642 11.94 102.642 11.7 102.642 11.46C102.642 8.24002 100.762 5.94002 97.442 5.94002C94.342 5.94002 92.062 8.46002 92.062 11.48C92.062 14.66 94.502 17.04 97.662 17.04C99.782 17.04 101.842 15.86 102.442 13.86L100.462 13.18C100.022 14.48 98.922 14.98 97.622 14.98C96.062 14.98 94.542 13.84 94.502 12.2H102.602Z" fill="white"/>
<path d="M110.927 8.56002V6.12002C110.747 6.08002 110.427 6.06002 110.347 6.06002C109.227 6.06002 108.067 6.64002 107.407 7.80002V6.16002H105.087V16.84H107.467V11.42C107.467 9.58002 108.427 8.50002 110.247 8.50002C110.287 8.50002 110.727 8.52002 110.927 8.56002Z" fill="white"/>
<path d="M116.478 17.02C119.318 17.02 120.658 15.38 120.658 13.7C120.658 11.36 118.818 10.6 116.818 10.34C115.378 10.14 114.718 9.88002 114.718 9.02002C114.718 8.34002 115.518 7.86002 116.358 7.86002C117.698 7.86002 118.278 8.64002 118.458 9.36002L120.478 8.88002C120.338 7.82002 119.258 5.94002 116.438 5.94002C114.058 5.94002 112.418 7.52002 112.418 9.22002C112.418 11.58 114.158 12.18 116.098 12.5C117.618 12.74 118.258 13 118.258 13.84C118.258 14.58 117.598 15.08 116.478 15.08C115.258 15.08 114.438 14.32 114.258 13.4L112.198 13.92C112.338 15.12 113.538 17.02 116.478 17.02Z" fill="white"/>
</svg>
